<mxfile host="app.diagrams.net" modified="2023-07-24T05:44:32.736Z" agent="Mozilla/5.0 (Linux; Android 12; SM-T870) AppleWebKit/537.36 (KHTML, like Gecko) Chrome/105.0.0.0 Safari/537.36" etag="A7YVtoHxfcHz75gfWU-v" version="21.6.5" type="github">
  <diagram name="페이지-1" id="E1JS0_6qsMiRRO4g4KR6">
    <mxGraphModel dx="719" dy="914" grid="0" gridSize="10" guides="1" tooltips="1" connect="1" arrows="1" fold="1" page="0" pageScale="1" pageWidth="827" pageHeight="1169" math="0" shadow="0">
      <root>
        <mxCell id="0" />
        <mxCell id="1" parent="0" />
      </root>
    </mxGraphModel>
  </diagram>
</mxfile>
